<svg width="944" height="1000" viewBox="0 0 944 1000" fill="none" xmlns="http://www.w3.org/2000/svg">
<path d="M74.3499 781.997L470.993 1000L869.678 779.044L944 162.646L470.492 0L0 165.576L74.3499 781.997Z" fill="#B3B3B3"/>
<path d="M469.401 947.918L827.814 749.556L897.077 198.273L469.401 52.4297V947.918Z" fill="#A6120D"/>
<path d="M469.392 947.914V52.4092L52.8005 200.898L116.51 752.187L469.392 947.914Z" fill="#DD1B16"/>
<path d="M587.12 529.134L469.396 584.184H345.316L286.989 730.073L178.5 732.081L469.396 84.9404L587.12 529.134ZM575.74 501.418L470.176 292.434L383.587 497.822H469.39L575.74 501.418Z" fill="#F2F2F2"/>
<path d="M568.418 497.982H469.608L469.386 584.053L606.017 584.184L669.875 732.104L773.682 734.027L469.386 84.9404L470.165 292.434L568.418 497.982Z" fill="#B3B3B3"/>
</svg>
